<?xml version="1.0" standalone="no"?>
<!DOCTYPE svg PUBLIC "-//W3C//DTD SVG 20010904//EN"
 "http://www.w3.org/TR/2001/REC-SVG-20010904/DTD/svg10.dtd">
<svg version="1.0" xmlns="http://www.w3.org/2000/svg"
 width="325.000000pt" height="325.000000pt" viewBox="0 0 325.000000 325.000000"
 preserveAspectRatio="xMidYMid meet">

<g transform="translate(0.000000,325.000000) scale(0.100000,-0.100000)"
fill="#11143e" stroke="none">
<path d="M805 2710 c-191 -38 -343 -164 -408 -336 -21 -57 -22 -74 -27 -494
l-5 -435 -107 -3 c-61 -1 -108 -7 -108 -12 0 -7 536 -10 1485 -10 965 0 1485
3 1485 10 0 6 -88 11 -231 12 l-231 3 76 99 c80 104 122 181 153 281 27 90 27
465 -1 545 -46 135 -119 227 -223 283 -117 62 -317 86 -448 52 -251 -66 -414
-280 -415 -546 0 -45 5 -80 12 -87 14 -14 325 -17 347 -3 9 6 16 38 21 87 8
89 25 129 70 168 39 33 67 40 134 34 64 -5 107 -33 132 -85 26 -55 32 -238 10
-335 -21 -93 -48 -139 -196 -337 l-120 -161 -355 0 -355 0 0 114 c0 91 -3 118
-16 130 -13 14 -51 16 -265 16 l-249 0 -10 -26 c-6 -14 -10 -72 -10 -130 l0
-104 -85 0 -85 0 0 397 0 396 25 42 c33 56 80 79 153 73 49 -4 59 -9 93 -45
47 -51 59 -93 59 -216 0 -95 1 -98 26 -107 14 -6 92 -10 174 -10 194 0 184
-10 178 174 -4 116 -10 155 -32 222 -58 181 -189 302 -365 340 -71 15 -221 17
-286 4z"/>
<path d="M440 1224 c-15 -39 -12 -117 6 -142 17 -24 53 -29 72 -10 7 7 12 29
12 50 0 31 -4 38 -19 38 -17 0 -19 -5 -14 -35 4 -28 2 -35 -11 -35 -13 0 -16
12 -16 65 0 51 3 65 15 65 8 0 15 -7 15 -15 0 -8 7 -15 15 -15 18 0 20 31 3
48 -7 7 -25 12 -40 12 -21 0 -31 -6 -38 -26z"/>
<path d="M712 1238 c-16 -16 -16 -150 0 -166 19 -19 55 -14 72 10 18 25 21
103 6 142 -7 20 -17 26 -38 26 -15 0 -33 -5 -40 -12z m48 -83 c0 -51 -3 -65
-15 -65 -12 0 -15 14 -15 65 0 51 3 65 15 65 12 0 15 -14 15 -65z"/>
<path d="M962 1158 l3 -93 43 -3 c33 -2 42 0 42 12 0 10 -9 16 -25 16 -25 0
-25 1 -25 80 0 74 -2 80 -20 80 -20 0 -21 -5 -18 -92z"/>
<path d="M1222 1238 c-18 -18 -16 -178 2 -178 8 0 16 10 18 22 5 34 38 37 38
4 0 -16 6 -26 15 -26 12 0 15 16 15 83 0 51 -5 88 -12 95 -15 15 -61 15 -76 0z
m56 -61 c3 -32 0 -37 -17 -37 -17 0 -21 6 -21 33 0 61 33 63 38 4z"/>
<path d="M1492 1238 c-7 -7 -12 -44 -12 -95 0 -67 3 -83 15 -83 12 0 15 16 15
80 0 62 3 80 14 80 20 0 26 -23 26 -96 0 -50 3 -64 15 -64 12 0 15 15 15 76 0
41 -5 84 -10 95 -12 22 -59 26 -78 7z"/>
<path d="M1762 1238 c-7 -7 -12 -41 -12 -83 0 -75 9 -95 45 -95 31 0 45 19 45
62 0 31 -4 38 -19 38 -17 0 -19 -5 -14 -36 5 -29 3 -36 -8 -32 -10 3 -15 24
-17 66 -2 51 0 62 13 62 8 0 15 -7 15 -15 0 -8 7 -15 15 -15 20 0 20 46 -1 54
-25 9 -49 7 -62 -6z"/>
<path d="M2236 1234 c-12 -11 -16 -36 -16 -95 0 -72 2 -79 20 -79 15 0 20 7
20 25 0 16 6 25 15 25 9 0 15 -9 15 -25 0 -16 6 -25 15 -25 12 0 15 16 15 83
0 51 -5 88 -12 95 -17 17 -54 15 -72 -4z m54 -54 c0 -29 -4 -40 -15 -40 -11 0
-15 11 -15 40 0 29 4 40 15 40 11 0 15 -11 15 -40z"/>
<path d="M2502 1238 c-7 -7 -12 -41 -12 -83 0 -42 5 -76 12 -83 20 -20 56 -14
74 13 20 31 16 141 -7 156 -20 12 -53 11 -67 -3z m56 -62 c4 -52 -5 -86 -23
-86 -12 0 -15 14 -15 66 0 57 2 65 18 62 12 -2 18 -15 20 -42z"/>
<path d="M2762 1238 c-7 -7 -12 -18 -12 -25 0 -16 27 -17 32 -1 5 15 38 3 38
-15 0 -8 -16 -35 -35 -60 -49 -64 -47 -77 15 -77 38 0 50 4 50 15 0 10 -10 15
-31 15 -31 0 -31 0 -15 23 39 53 50 85 38 112 -13 27 -58 35 -80 13z"/>
<path d="M157 884 c-17 -18 14 -24 122 -24 l117 0 27 -56 c69 -140 227 -249
402 -279 68 -12 217 -6 279 10 144 38 283 148 340 269 l27 56 169 0 170 0 0
-145 c0 -132 2 -145 19 -155 13 -6 203 -10 550 -10 l530 0 15 22 c13 18 16 51
16 155 l0 133 90 0 c73 0 90 3 90 15 0 13 -171 15 -1478 15 -813 0 -1482 -3
-1485 -6z"/>
</g>
</svg>
